####
#
#	OBJ File Generated by LightWave3D
#	LightWave3D OBJ Export v2.3
#
####
o a_few_box.obj
mtllib a_few_box.mtl
g default
v -2 0 2
v -2 0 1
v -2 0 -1
v -2 0 -2
v -2 2.66 2
v -2 2.66 1
v -2 2.66 -1
v -2 2.66 -2
v -1 0 2
v -1 0 1
v -1 0 -1
v -1 0 -2
v -1 2.66 2
v -1 2.66 1
v -1 2.66 -1
v -1 2.66 -2
v 1 0 2
v 1 0 1
v 1 0 -1
v 1 0 -2
v 1 2.66 2
v 1 2.66 1
v 1 2.66 -1
v 1 2.66 -2
v 2 0 2
v 2 0 1
v 2 0 -1
v 2 0 -2
v 2 2.66 2
v 2 2.66 1
v 2 2.66 -1
v 2 2.66 -2
vt 0.1 0.1
vt 0.1 0.234
vt 0.1 0.3
vt 0.1 0.7
vt 0.1 0.766
vt 0.1 0.9
vt 0.3 0.1
vt 0.3 0.234
vt 0.3 0.3
vt 0.3 0.7
vt 0.3 0.766
vt 0.3 0.9
vt 0.7 0.1
vt 0.7 0.234
vt 0.7 0.3
vt 0.7 0.7
vt 0.7 0.766
vt 0.7 0.9
vt 0.9 0.1
vt 0.9 0.234
vt 0.9 0.3
vt 0.9 0.7
vt 0.9 0.766
vt 0.9 0.9
vn -0.666667 -0.666667 -0.333333
vn -0.666667 0.333333 0.666667
vn -0.57735 -0.57735 0.57735
vn -0.333333 0.666667 -0.666667
vn 0.333333 -0.666667 0.666667
vn 0.57735 0.57735 -0.57735
vn 0.666667 -0.333333 -0.666667
vn 0.666667 0.666667 0.333333
usemtl Default
s off
f 5/5/2 2/8/1 1/2/3
f 5/5/2 6/11/4 2/8/1
f 1/1/3 2/3/1 9/7/5
f 2/3/1 10/9/7 9/7/5
f 2/2/1 6/5/4 10/8/7
f 6/5/4 14/11/6 10/8/7
f 6/3/4 5/1/2 13/7/8
f 14/9/6 6/3/4 13/7/8
f 5/5/2 1/2/3 9/8/5
f 13/11/8 5/5/2 9/8/5
f 10/8/7 13/5/8 9/2/5
f 14/11/6 13/5/8 10/8/7
f 7/17/2 4/20/1 3/14/3
f 7/17/2 8/23/4 4/20/1
f 3/4/3 4/6/1 11/10/5
f 4/6/1 12/12/7 11/10/5
f 4/2/1 8/5/4 12/8/7
f 8/5/4 16/11/6 12/8/7
f 8/6/4 7/4/2 15/10/8
f 16/12/6 8/6/4 15/10/8
f 7/5/2 3/2/3 11/8/5
f 15/11/8 7/5/2 11/8/5
f 12/20/7 15/17/8 11/14/5
f 16/23/6 15/17/8 12/20/7
f 21/5/2 18/8/1 17/2/3
f 21/5/2 22/11/4 18/8/1
f 17/13/3 18/15/1 25/19/5
f 18/15/1 26/21/7 25/19/5
f 18/14/1 22/17/4 26/20/7
f 22/17/4 30/23/6 26/20/7
f 22/15/4 21/13/2 29/19/8
f 30/21/6 22/15/4 29/19/8
f 21/17/2 17/14/3 25/20/5
f 29/23/8 21/17/2 25/20/5
f 26/8/7 29/5/8 25/2/5
f 30/11/6 29/5/8 26/8/7
f 23/17/2 20/20/1 19/14/3
f 23/17/2 24/23/4 20/20/1
f 19/16/3 20/18/1 27/22/5
f 20/18/1 28/24/7 27/22/5
f 20/14/1 24/17/4 28/20/7
f 24/17/4 32/23/6 28/20/7
f 24/18/4 23/16/2 31/22/8
f 32/24/6 24/18/4 31/22/8
f 23/17/2 19/14/3 27/20/5
f 31/23/8 23/17/2 27/20/5
f 28/20/7 31/17/8 27/14/5
f 32/23/6 31/17/8 28/20/7
